<svg xmlns="http://www.w3.org/2000/svg" version="1.1" xmlns:xlink="http://www.w3.org/1999/xlink" xmlns:svgjs="http://svgjs.dev/svgjs" width="1000" height="999" viewBox="0 0 1000 999"><g transform="matrix(1,0,0,1,-0.215743440233382,-0.21552769679306039)"><svg viewBox="0 0 343 343" data-background-color="#ffffff" preserveAspectRatio="xMidYMid meet" height="999" width="1000" xmlns="http://www.w3.org/2000/svg" xmlns:xlink="http://www.w3.org/1999/xlink"><g id="tight-bounds" transform="matrix(1,0,0,1,0.0740000000000407,0.07400000000001228)"><svg viewBox="0 0 342.85155851775386 342.85155851775386" height="342.85155851775386" width="342.85155851775386"><g><svg></svg></g><g><svg viewBox="0 0 342.85155851775386 342.85155851775386" height="342.85155851775386" width="342.85155851775386"><g><path d="M0 171.426c0-94.676 76.75-171.426 171.426-171.426 94.676 0 171.426 76.75 171.426 171.426 0 94.676-76.75 171.426-171.426 171.426-94.676 0-171.426-76.75-171.426-171.426zM171.426 331.686c88.509 0 160.26-71.751 160.26-160.26 0-88.509-71.751-160.26-160.26-160.26-88.509 0-160.26 71.751-160.26 160.26 0 88.509 71.751 160.26 160.26 160.26z" data-fill-palette-color="tertiary" fill="#ef86c1" stroke="transparent"></path><ellipse rx="164.56874808852186" ry="164.56874808852186" cx="171.42577925887693" cy="171.42577925887693" fill="#ef86c1" stroke="transparent" stroke-width="0" fill-opacity="1" data-fill-palette-color="tertiary"></ellipse></g><g transform="matrix(1,0,0,1,64.84655864529837,109.51904010866036)"><svg viewBox="0 0 213.1584412271571 123.81347830043313" height="123.81347830043313" width="213.1584412271571"><g><svg viewBox="0 0 213.1584412271571 123.81347830043313" height="123.81347830043313" width="213.1584412271571"><g><svg viewBox="0 0 213.1584412271571 123.81347830043313" height="123.81347830043313" width="213.1584412271571"><g><svg viewBox="0 0 213.1584412271571 123.81347830043313" height="123.81347830043313" width="213.1584412271571"><g id="textblocktransform"><svg viewBox="0 0 213.1584412271571 123.81347830043313" height="123.81347830043313" width="213.1584412271571" id="textblock"><g><svg viewBox="0 0 213.1584412271571 123.81347830043313" height="123.81347830043313" width="213.1584412271571"><g transform="matrix(1,0,0,1,0,0)"><svg width="213.1584412271571" viewBox="2.859999895095825 -35.939998626708984 64.76000213623047 37.619998931884766" height="123.81347830043313" data-palette-color="#ffffff"><path d="M8.62 1.27L4.17 1.27Q3.91 1.22 3.78 1 3.66 0.78 3.66 0.51L3.66 0.51Q3.66 0.29 3.76 0.12L3.76 0.12 6.76-5.62Q6.79-5.71 6.85-6.37 6.91-7.03 6.98-8.02 7.06-9.01 7.14-10.23 7.23-11.45 7.32-12.65 7.42-13.84 7.51-14.93 7.59-16.02 7.67-16.75L7.67-16.75Q7.69-17.04 7.74-17.64 7.79-18.24 7.84-19.02 7.89-19.8 7.96-20.7 8.03-21.61 8.11-22.51L8.11-22.51 8.45-27.61Q7.79-27.47 7.08-27.31 6.37-27.15 5.7-27.03 5.03-26.9 4.43-26.82 3.83-26.73 3.39-26.73L3.39-26.73Q3.13-26.73 2.99-26.98 2.86-27.22 2.86-27.49L2.86-27.49Q2.86-27.81 3-27.95L3-27.95 9.2-33.74Q9.96-34.42 10.71-34.85 11.45-35.28 12.5-35.52 13.55-35.77 15.08-35.85 16.6-35.94 18.95-35.94L18.95-35.94Q22.95-35.94 26.05-35.11 29.15-34.28 31.3-32.74L31.3-32.74Q32.89-31.64 34.13-30.44 35.38-29.25 36.23-27.8 37.08-26.34 37.52-24.6 37.96-22.85 37.96-20.65L37.96-20.65Q37.96-16.48 36.72-13.23 35.47-9.99 33.33-7.56 31.18-5.13 28.31-3.44 25.44-1.76 22.18-0.71 18.92 0.34 15.44 0.81 11.96 1.27 8.62 1.27L8.62 1.27ZM18.36-28.13L18.36-28.13 18.07-25.17Q17.92-23.63 17.76-21.89 17.6-20.14 17.46-18.35 17.31-16.55 17.16-14.81 17.02-13.06 16.89-11.55 16.77-10.03 16.67-8.84 16.58-7.64 16.5-6.93L16.5-6.93 16.43-6.2Q19.38-6.2 21.42-7.15 23.46-8.11 24.73-9.78 26-11.45 26.57-13.7 27.15-15.94 27.15-18.53L27.15-18.53Q27.15-20.39 26.64-22.11 26.12-23.83 25.15-25.39L25.15-25.39Q24.17-26.95 22.75-27.73 21.34-28.52 19.56-28.52L19.56-28.52Q19.26-28.52 18.92-28.38 18.58-28.25 18.36-28.13ZM38.94-33.08L46.85-35.21Q47.04-35.25 47.04-35.25L47.04-35.25 47.26-35.25Q47.68-35.25 48.07-34.97 48.46-34.69 48.85-34.01L48.85-34.01Q49.12-33.52 49.62-32.57 50.12-31.62 50.71-30.52 51.29-29.42 51.88-28.31 52.46-27.2 52.9-26.39L52.9-26.39 56.96-33.37 66.62-35.33Q66.75-35.35 66.86-35.36 66.97-35.38 67.09-35.38L67.09-35.38Q67.62-35.38 67.62-34.96L67.62-34.96Q67.62-34.81 67.56-34.58 67.5-34.35 67.36-34.08L67.36-34.08 62.94-26.2 61.18-23.19Q60.4-21.88 59.51-20.36 58.62-18.85 57.83-17.5L57.83-17.5Q58.27-16.77 58.65-16.09 59.03-15.41 59.34-14.84 59.64-14.28 59.85-13.87 60.06-13.45 60.18-13.23L60.18-13.23 66.11-1.98 66.04-1.07Q66.04-1 65.72-0.79 65.4-0.59 64.88-0.32 64.35-0.05 63.68 0.24 63.01 0.54 62.28 0.78L62.28 0.78 60.54 1.37Q60.23 1.37 59.85 1.53 59.47 1.68 59.06 1.68L59.06 1.68Q58.71 1.68 58.41 1.53 58.1 1.37 57.79 0.88L57.79 0.88Q57.22 0.07 56.54-1.03 55.86-2.12 55.08-3.54L55.08-3.54 52.39-8.28 48.53-1.76 47.78-1.03Q47.75-0.95 47.34-0.79 46.92-0.63 46.25-0.4 45.58-0.17 44.75 0.1 43.92 0.37 43.1 0.61 42.28 0.85 41.53 1.06 40.77 1.27 40.28 1.39L40.28 1.39Q39.99 1.39 39.44 1.54 38.89 1.68 38.47 1.68L38.47 1.68Q38.25 1.68 38.11 1.6 37.96 1.51 37.96 1.32L37.96 1.32Q37.96 1.1 38.18 0.56 38.4 0.02 38.77-0.7 39.13-1.42 39.58-2.27 40.04-3.13 40.5-3.98 40.96-4.83 41.4-5.62 41.84-6.4 42.16-6.98L42.16-6.98Q43.36-9.28 44.72-11.74L44.72-11.74 47.48-16.72 38.99-31.88Q38.74-32.3 38.74-32.74L38.74-32.74Q38.74-33.01 38.94-33.08L38.94-33.08Z" opacity="1" transform="matrix(1,0,0,1,0,0)" fill="#ffffff" class="undefined-text-0" data-fill-palette-color="quaternary" id="text-0"></path></svg></g></svg></g></svg></g></svg></g><g></g></svg></g></svg></g></svg></g></svg></g><defs></defs></svg><rect width="342.85155851775386" height="342.85155851775386" fill="none" stroke="none" visibility="hidden"></rect></g></svg></g></svg>