<svg xmlns="http://www.w3.org/2000/svg" version="1.1" xmlns:xlink="http://www.w3.org/1999/xlink" xmlns:svgjs="http://svgjs.dev/svgjs" width="2000" height="1090" viewBox="0 0 2000 1090"><g transform="matrix(1,0,0,1,-1.2112696095522324,1.20652516301152)"><svg viewBox="0 0 396 216" data-background-color="#ffffff" preserveAspectRatio="xMidYMid meet" height="1090" width="2000" xmlns="http://www.w3.org/2000/svg" xmlns:xlink="http://www.w3.org/1999/xlink"><g id="tight-bounds" transform="matrix(1,0,0,1,0.24008861730862918,-0.2390341875774311)"><svg viewBox="0 0 395.52 216.4781254125412" height="216.4781254125412" width="395.52"><g><svg viewBox="0 0 395.52 216.4781254125412" height="216.4781254125412" width="395.52"><g><svg viewBox="0 0 395.52 216.4781254125412" height="216.4781254125412" width="395.52"><g id="textblocktransform"><svg viewBox="0 0 395.52 216.4781254125412" height="216.4781254125412" width="395.52" id="textblock"><g><svg viewBox="0 0 395.52 216.4781254125412" height="216.4781254125412" width="395.52"><path d="M394.594 46.43C392.735 23.96 387.435 17.713 387.435 17.713 371.165-5.431 350.86-0.443 332.619 2.883 300.414 3.018 268.339 7.961 236.208 10.613 168.767 11.017 100.749 4.366 33.643 20.769 27.339 25.803-6.54 21.758 1.121 49.307 3.129 60.767 10.456 73.485 10.232 84.001 11.236 85.843 12.631 81.619 13.226 84.27 15.309 91.416 18.711 88.046 21.501 92.27 17.614 103.55 20.403 112.943 23.062 122.785 18.377 125.346 12.371 124.133 9.675 132.627 9.396 138.784 7.89 137.615 6.235 137.345 5.026 137.166 2.59 137.84 2.999 139.772 4.394 146.379-1.594 150.199 2.162 156.67-0.422 163.681 3.948 169.748 3.353 177.343 3.278 178.871 3.687 180.174 4.338 180.533 7.22 182.466 3.018 186.241 3.464 190.331 33.029 218.284 65.104 198.959 95.394 211.812 103.259 202.824 97.346 215.003 100.489 213.115 102.943 210.913 104.728 220.036 107.499 214.868 107.927 213.385 107.276 209.88 108.8 210.554 109.6 210.913 110.307 210.824 110.418 208.756 110.586 205.655 109.117 207.588 108.726 205.97 112.947 197.791 111.906 217.25 115.866 216.441 115.68 214.059 114.528 210.644 116.889 211.093 119.232 207.678 119.306 204.846 121.389 212.531 121.463 214.194 121.835 215.363 122.43 216.171 128.938 207.812 135.409 219.138 142.233 215.363 146.417 211.228 150.433 217.61 154.672 216.037 156.16 214.778 157.666 212.531 159.098 216.306 176.632 217.115 195.319 213.745 211.943 216.441 256.364 211.408 303.835 218.508 350.674 211.857 361.719 209.296 373.192 205.655 383.958 202.734 383.958 202.734 392.679 194.735 392.679 158.782S394.538 127.324 394.817 98.696C395.096 70.069 396.398 68.901 394.538 46.43Z" opacity="1" fill="#df5155" data-fill-palette-color="tertiary"></path><g transform="matrix(1,0,0,1,55.76832,26.230666666666668)"><svg width="283.98335999999995" viewBox="4.349999904632568 -35 60.599998474121094 35" height="164.01679207920787" data-palette-color="#ffffff"><path d="M17.1 0L5.5 0Q4.95 0 4.65-0.33 4.35-0.65 4.35-1.15L4.35-1.15 4.35-33.8Q4.35-34.35 4.65-34.68 4.95-35 5.5-35L5.5-35 16.85-35Q22-35 25.15-33.45 28.3-31.9 29.75-28.88 31.2-25.85 31.25-21.45L31.25-21.45Q31.3-19.2 31.3-17.5 31.3-15.8 31.25-13.6L31.25-13.6Q31.15-9 29.73-5.98 28.3-2.95 25.23-1.48 22.15 0 17.1 0L17.1 0ZM9.25-30.75L9.25-4.25 16.85-4.25Q20.3-4.25 22.35-5.2 24.4-6.15 25.33-8.25 26.25-10.35 26.3-13.8L26.3-13.8Q26.4-15.3 26.4-16.43 26.4-17.55 26.4-18.68 26.4-19.8 26.3-21.25L26.3-21.25Q26.2-26.1 24-28.43 21.8-30.75 16.6-30.75L16.6-30.75 9.25-30.75ZM39.65 0L36.7 0Q36.3 0 35.97-0.3 35.65-0.6 35.65-1L35.65-1Q35.65-1.2 35.72-1.38 35.8-1.55 35.85-1.65L35.85-1.65 47.3-17.8 36.4-33.35Q36.25-33.65 36.25-34L36.25-34Q36.25-34.4 36.55-34.7 36.85-35 37.25-35L37.25-35 40.25-35Q40.75-35 41.05-34.77 41.35-34.55 41.6-34.15L41.6-34.15 50.4-21.65 59.15-34.15Q59.35-34.55 59.67-34.77 60-35 60.45-35L60.45-35 63.3-35Q63.7-35 64-34.7 64.3-34.4 64.3-34L64.3-34Q64.3-33.65 64.1-33.35L64.1-33.35 53.35-17.75 64.75-1.65Q64.85-1.55 64.9-1.38 64.95-1.2 64.95-1L64.95-1Q64.95-0.6 64.65-0.3 64.35 0 63.9 0L63.9 0 60.85 0Q60.4 0 60.07-0.25 59.75-0.5 59.5-0.85L59.5-0.85 50.2-13.8 40.95-0.85Q40.7-0.5 40.4-0.25 40.1 0 39.65 0L39.65 0Z" opacity="1" transform="matrix(1,0,0,1,0,0)" fill="#ffffff" class="undefined-text-0" data-fill-palette-color="quaternary" id="text-0"></path></svg></g></svg></g></svg></g></svg></g><g></g></svg></g><defs></defs></svg><rect width="395.52" height="216.4781254125412" fill="none" stroke="none" visibility="hidden"></rect></g></svg></g></svg>